<svg width="40" height="40" viewBox="0 0 40 40" fill="none" xmlns="http://www.w3.org/2000/svg">
<g clip-path="url(#clip0_127_1708)">
<path d="M7.5 8.21429C7.5 5.0625 9.74219 2.5 12.5 2.5H35C37.7578 2.5 40 5.0625 40 8.21429V36.7857C40 39.9375 37.7578 42.5 35 42.5H6.25C2.79688 42.5 0 39.3036 0 35.3571V11.0714C0 9.49107 1.11719 8.21429 2.5 8.21429C3.88281 8.21429 5 9.49107 5 11.0714V35.3571C5 36.1429 5.5625 36.7857 6.25 36.7857C6.9375 36.7857 7.5 36.1429 7.5 35.3571V8.21429ZM12.5 10.3571V17.5C12.5 18.6875 13.3359 19.6429 14.375 19.6429H23.125C24.1641 19.6429 25 18.6875 25 17.5V10.3571C25 9.16964 24.1641 8.21429 23.125 8.21429H14.375C13.3359 8.21429 12.5 9.16964 12.5 10.3571ZM28.75 9.64286C28.75 10.4286 29.3125 11.0714 30 11.0714H33.75C34.4375 11.0714 35 10.4286 35 9.64286C35 8.85714 34.4375 8.21429 33.75 8.21429H30C29.3125 8.21429 28.75 8.85714 28.75 9.64286ZM28.75 18.2143C28.75 19 29.3125 19.6429 30 19.6429H33.75C34.4375 19.6429 35 19 35 18.2143C35 17.4286 34.4375 16.7857 33.75 16.7857H30C29.3125 16.7857 28.75 17.4286 28.75 18.2143ZM12.5 26.7857C12.5 27.5714 13.0625 28.2143 13.75 28.2143H33.75C34.4375 28.2143 35 27.5714 35 26.7857C35 26 34.4375 25.3571 33.75 25.3571H13.75C13.0625 25.3571 12.5 26 12.5 26.7857ZM12.5 35.3571C12.5 36.1429 13.0625 36.7857 13.75 36.7857H33.75C34.4375 36.7857 35 36.1429 35 35.3571C35 34.5714 34.4375 33.9286 33.75 33.9286H13.75C13.0625 33.9286 12.5 34.5714 12.5 35.3571Z" fill="black" fill-opacity="0.24"/>
</g>
<defs>
<clipPath id="clip0_127_1708">
<rect width="40" height="40" fill="white"/>
</clipPath>
</defs>
</svg>
